<mxfile host="app.diagrams.net" agent="Mozilla/5.0 (Windows NT 10.0; Win64; x64) AppleWebKit/537.36 (KHTML, like Gecko) Chrome/133.0.0.0 Safari/537.36 Edg/133.0.0.0" version="26.0.16">
  <diagram name="Seite-1" id="vCrZaKIHrHewtjHEEx6Q">
    <mxGraphModel dx="689" dy="369" grid="1" gridSize="10" guides="1" tooltips="1" connect="1" arrows="1" fold="1" page="1" pageScale="1" pageWidth="827" pageHeight="1169" math="0" shadow="0">
      <root>
        <mxCell id="0" />
        <mxCell id="1" parent="0" />
        <mxCell id="VAQp6IkPgZ3z1ja0-aQf-18" style="edgeStyle=none;shape=connector;rounded=0;orthogonalLoop=1;jettySize=auto;html=1;exitX=1;exitY=0.5;exitDx=0;exitDy=0;strokeColor=#99CCFF;align=center;verticalAlign=middle;fontFamily=Helvetica;fontSize=11;fontColor=default;labelBackgroundColor=default;endArrow=classic;" parent="1" source="VAQp6IkPgZ3z1ja0-aQf-2" edge="1">
          <mxGeometry relative="1" as="geometry">
            <mxPoint x="60" y="460" as="targetPoint" />
          </mxGeometry>
        </mxCell>
        <mxCell id="VAQp6IkPgZ3z1ja0-aQf-2" value="Start" style="rounded=1;arcSize=10;whiteSpace=wrap;html=1;align=center;fillColor=#d5e8d4;strokeColor=#82b366;fontColor=#434D66;fontStyle=1" parent="1" vertex="1">
          <mxGeometry y="440" width="40" height="40" as="geometry" />
        </mxCell>
        <mxCell id="VAQp6IkPgZ3z1ja0-aQf-19" style="edgeStyle=none;shape=connector;rounded=0;orthogonalLoop=1;jettySize=auto;html=1;exitX=0;exitY=0.5;exitDx=0;exitDy=0;strokeColor=#99CCFF;align=center;verticalAlign=middle;fontFamily=Helvetica;fontSize=11;fontColor=default;labelBackgroundColor=default;endArrow=none;startArrow=classic;startFill=1;endFill=0;" parent="1" source="VAQp6IkPgZ3z1ja0-aQf-3" edge="1">
          <mxGeometry relative="1" as="geometry">
            <mxPoint x="60" y="430" as="targetPoint" />
          </mxGeometry>
        </mxCell>
        <mxCell id="VAQp6IkPgZ3z1ja0-aQf-21" style="edgeStyle=none;shape=connector;rounded=0;orthogonalLoop=1;jettySize=auto;html=1;exitX=1;exitY=0.5;exitDx=0;exitDy=0;strokeColor=#99CCFF;align=center;verticalAlign=middle;fontFamily=Helvetica;fontSize=11;fontColor=default;labelBackgroundColor=default;endArrow=classic;" parent="1" source="VAQp6IkPgZ3z1ja0-aQf-3" edge="1">
          <mxGeometry relative="1" as="geometry">
            <mxPoint x="260" y="430" as="targetPoint" />
          </mxGeometry>
        </mxCell>
        <mxCell id="VAQp6IkPgZ3z1ja0-aQf-3" value="RouterList:&lt;div&gt;läd routes Komponenten&lt;/div&gt;" style="rounded=1;arcSize=10;whiteSpace=wrap;html=1;align=center;fillColor=#f5f5f5;strokeColor=#666666;fontColor=#434D66;fontStyle=1" parent="1" vertex="1">
          <mxGeometry x="80" y="410" width="160" height="40" as="geometry" />
        </mxCell>
        <mxCell id="VAQp6IkPgZ3z1ja0-aQf-20" style="edgeStyle=none;shape=connector;rounded=0;orthogonalLoop=1;jettySize=auto;html=1;exitX=0;exitY=0.5;exitDx=0;exitDy=0;strokeColor=#99CCFF;align=center;verticalAlign=middle;fontFamily=Helvetica;fontSize=11;fontColor=default;labelBackgroundColor=default;endArrow=none;startArrow=classic;startFill=1;endFill=0;" parent="1" source="VAQp6IkPgZ3z1ja0-aQf-4" edge="1">
          <mxGeometry relative="1" as="geometry">
            <mxPoint x="60" y="490" as="targetPoint" />
          </mxGeometry>
        </mxCell>
        <mxCell id="VAQp6IkPgZ3z1ja0-aQf-22" style="edgeStyle=none;shape=connector;rounded=0;orthogonalLoop=1;jettySize=auto;html=1;exitX=1;exitY=0.5;exitDx=0;exitDy=0;strokeColor=#99CCFF;align=center;verticalAlign=middle;fontFamily=Helvetica;fontSize=11;fontColor=default;labelBackgroundColor=default;endArrow=classic;" parent="1" source="VAQp6IkPgZ3z1ja0-aQf-4" edge="1">
          <mxGeometry relative="1" as="geometry">
            <mxPoint x="260" y="490" as="targetPoint" />
          </mxGeometry>
        </mxCell>
        <mxCell id="VAQp6IkPgZ3z1ja0-aQf-4" value="NavigationList:&lt;div&gt;läd routes Navigations&lt;/div&gt;" style="rounded=1;arcSize=10;whiteSpace=wrap;html=1;align=center;fillColor=#f5f5f5;strokeColor=#666666;fontColor=#434D66;fontStyle=1" parent="1" vertex="1">
          <mxGeometry x="80" y="470" width="160" height="40" as="geometry" />
        </mxCell>
        <mxCell id="VAQp6IkPgZ3z1ja0-aQf-68" style="edgeStyle=orthogonalEdgeStyle;shape=connector;rounded=0;orthogonalLoop=1;jettySize=auto;html=1;exitX=0.75;exitY=1;exitDx=0;exitDy=0;entryX=0;entryY=0.5;entryDx=0;entryDy=0;strokeColor=#99CCFF;align=center;verticalAlign=middle;fontFamily=Helvetica;fontSize=11;fontColor=default;labelBackgroundColor=default;endArrow=classic;" parent="1" source="VAQp6IkPgZ3z1ja0-aQf-7" target="VAQp6IkPgZ3z1ja0-aQf-65" edge="1">
          <mxGeometry relative="1" as="geometry" />
        </mxCell>
        <mxCell id="VAQp6IkPgZ3z1ja0-aQf-7" value="RouterSync:&lt;div&gt;path im Store speichern&lt;/div&gt;" style="rounded=1;arcSize=10;whiteSpace=wrap;html=1;align=center;fillColor=#f5f5f5;strokeColor=#666666;fontColor=#434D66;fontStyle=1" parent="1" vertex="1">
          <mxGeometry x="400" y="380" width="160" height="40" as="geometry" />
        </mxCell>
        <mxCell id="VAQp6IkPgZ3z1ja0-aQf-69" style="edgeStyle=orthogonalEdgeStyle;shape=connector;rounded=0;orthogonalLoop=1;jettySize=auto;html=1;exitX=1;exitY=0.5;exitDx=0;exitDy=0;entryX=0.5;entryY=1;entryDx=0;entryDy=0;strokeColor=#99CCFF;align=center;verticalAlign=middle;fontFamily=Helvetica;fontSize=11;fontColor=default;labelBackgroundColor=default;endArrow=classic;" parent="1" source="VAQp6IkPgZ3z1ja0-aQf-8" target="VAQp6IkPgZ3z1ja0-aQf-65" edge="1">
          <mxGeometry relative="1" as="geometry" />
        </mxCell>
        <mxCell id="VAQp6IkPgZ3z1ja0-aQf-8" value="RouterSync:&lt;div&gt;lade gespeicherten path&lt;/div&gt;" style="rounded=1;arcSize=10;whiteSpace=wrap;html=1;align=center;fillColor=#f5f5f5;strokeColor=#666666;fontColor=#434D66;fontStyle=1" parent="1" vertex="1">
          <mxGeometry x="400" y="500" width="160" height="40" as="geometry" />
        </mxCell>
        <mxCell id="VAQp6IkPgZ3z1ja0-aQf-23" style="edgeStyle=none;shape=connector;rounded=0;orthogonalLoop=1;jettySize=auto;html=1;exitX=0;exitY=0.5;exitDx=0;exitDy=0;strokeColor=#99CCFF;align=center;verticalAlign=middle;fontFamily=Helvetica;fontSize=11;fontColor=default;labelBackgroundColor=default;endArrow=none;startArrow=classic;startFill=1;endFill=0;" parent="1" source="VAQp6IkPgZ3z1ja0-aQf-10" edge="1">
          <mxGeometry relative="1" as="geometry">
            <mxPoint x="260" y="460" as="targetPoint" />
          </mxGeometry>
        </mxCell>
        <mxCell id="VAQp6IkPgZ3z1ja0-aQf-25" style="edgeStyle=orthogonalEdgeStyle;shape=connector;rounded=0;orthogonalLoop=1;jettySize=auto;html=1;exitX=0.5;exitY=1;exitDx=0;exitDy=0;entryX=0;entryY=0.5;entryDx=0;entryDy=0;strokeColor=#99CCFF;align=center;verticalAlign=middle;fontFamily=Helvetica;fontSize=11;fontColor=default;labelBackgroundColor=default;endArrow=classic;" parent="1" source="VAQp6IkPgZ3z1ja0-aQf-10" target="VAQp6IkPgZ3z1ja0-aQf-8" edge="1">
          <mxGeometry relative="1" as="geometry" />
        </mxCell>
        <mxCell id="X7nKvmQEceXL8asA8oug-80" style="edgeStyle=orthogonalEdgeStyle;shape=connector;rounded=0;orthogonalLoop=1;jettySize=auto;html=1;exitX=1;exitY=0.5;exitDx=0;exitDy=0;entryX=0.25;entryY=1;entryDx=0;entryDy=0;strokeColor=#99CCFF;align=center;verticalAlign=middle;fontFamily=Helvetica;fontSize=11;fontColor=default;labelBackgroundColor=default;startArrow=none;startFill=0;endArrow=classic;endFill=1;" edge="1" parent="1" source="VAQp6IkPgZ3z1ja0-aQf-10" target="VAQp6IkPgZ3z1ja0-aQf-7">
          <mxGeometry relative="1" as="geometry" />
        </mxCell>
        <mxCell id="VAQp6IkPgZ3z1ja0-aQf-10" value="&lt;font style=&quot;font-size: 10px;&quot;&gt;erstes&lt;/font&gt;&lt;div style=&quot;font-size: 10px;&quot;&gt;&lt;font style=&quot;font-size: 10px;&quot;&gt;Laden&lt;/font&gt;&lt;/div&gt;" style="shape=rhombus;perimeter=rhombusPerimeter;whiteSpace=wrap;html=1;align=center;fontFamily=Helvetica;fontSize=11;labelBackgroundColor=none;fillColor=#dae8fc;strokeColor=#6c8ebf;fontColor=#434D66;" parent="1" vertex="1">
          <mxGeometry x="320" y="440" width="80" height="40" as="geometry" />
        </mxCell>
        <mxCell id="VAQp6IkPgZ3z1ja0-aQf-16" value="" style="endArrow=none;html=1;rounded=0;strokeColor=#99CCFF;align=center;verticalAlign=middle;fontFamily=Helvetica;fontSize=11;fontColor=default;labelBackgroundColor=default;strokeWidth=3;" parent="1" edge="1">
          <mxGeometry width="50" height="50" relative="1" as="geometry">
            <mxPoint x="60" y="500" as="sourcePoint" />
            <mxPoint x="60" y="420" as="targetPoint" />
          </mxGeometry>
        </mxCell>
        <mxCell id="VAQp6IkPgZ3z1ja0-aQf-17" value="" style="endArrow=none;html=1;rounded=0;strokeColor=#99CCFF;align=center;verticalAlign=middle;fontFamily=Helvetica;fontSize=11;fontColor=default;labelBackgroundColor=default;strokeWidth=3;" parent="1" edge="1">
          <mxGeometry width="50" height="50" relative="1" as="geometry">
            <mxPoint x="260" y="500" as="sourcePoint" />
            <mxPoint x="260" y="420" as="targetPoint" />
          </mxGeometry>
        </mxCell>
        <mxCell id="VAQp6IkPgZ3z1ja0-aQf-28" value="Ja" style="text;html=1;align=center;verticalAlign=middle;whiteSpace=wrap;rounded=0;fontFamily=Helvetica;fontSize=11;fontColor=#99CCFF;labelBackgroundColor=none;" parent="1" vertex="1">
          <mxGeometry x="346" y="518" width="40" height="16" as="geometry" />
        </mxCell>
        <mxCell id="VAQp6IkPgZ3z1ja0-aQf-29" value="Nein" style="text;html=1;align=center;verticalAlign=middle;whiteSpace=wrap;rounded=0;fontFamily=Helvetica;fontSize=11;fontColor=#99CCFF;labelBackgroundColor=none;" parent="1" vertex="1">
          <mxGeometry x="400" y="445" width="40" height="16" as="geometry" />
        </mxCell>
        <mxCell id="VAQp6IkPgZ3z1ja0-aQf-33" style="edgeStyle=none;shape=connector;rounded=0;orthogonalLoop=1;jettySize=auto;html=1;exitX=0.5;exitY=0;exitDx=0;exitDy=0;entryX=0.5;entryY=1;entryDx=0;entryDy=0;strokeColor=#99CCFF;align=center;verticalAlign=middle;fontFamily=Helvetica;fontSize=11;fontColor=default;labelBackgroundColor=default;endArrow=classic;" parent="1" source="VAQp6IkPgZ3z1ja0-aQf-31" target="VAQp6IkPgZ3z1ja0-aQf-32" edge="1">
          <mxGeometry relative="1" as="geometry" />
        </mxCell>
        <mxCell id="VAQp6IkPgZ3z1ja0-aQf-31" value="RouterSync:&lt;div&gt;beobachtet den path/url&lt;/div&gt;" style="rounded=1;arcSize=10;whiteSpace=wrap;html=1;align=center;fillColor=#f5f5f5;strokeColor=#666666;fontColor=#434D66;fontStyle=1" parent="1" vertex="1">
          <mxGeometry x="600" y="380" width="160" height="40" as="geometry" />
        </mxCell>
        <mxCell id="VAQp6IkPgZ3z1ja0-aQf-64" style="edgeStyle=orthogonalEdgeStyle;shape=connector;rounded=0;orthogonalLoop=1;jettySize=auto;html=1;exitX=0;exitY=0.5;exitDx=0;exitDy=0;entryX=0.5;entryY=0;entryDx=0;entryDy=0;strokeColor=#99CCFF;align=center;verticalAlign=middle;fontFamily=Helvetica;fontSize=11;fontColor=default;labelBackgroundColor=default;endArrow=classic;" parent="1" source="VAQp6IkPgZ3z1ja0-aQf-32" target="VAQp6IkPgZ3z1ja0-aQf-10" edge="1">
          <mxGeometry relative="1" as="geometry" />
        </mxCell>
        <mxCell id="VAQp6IkPgZ3z1ja0-aQf-66" style="edgeStyle=orthogonalEdgeStyle;shape=connector;rounded=0;orthogonalLoop=1;jettySize=auto;html=1;exitX=1;exitY=0.5;exitDx=0;exitDy=0;entryX=1;entryY=0.5;entryDx=0;entryDy=0;strokeColor=#99CCFF;align=center;verticalAlign=middle;fontFamily=Helvetica;fontSize=11;fontColor=default;labelBackgroundColor=default;endArrow=classic;" parent="1" source="VAQp6IkPgZ3z1ja0-aQf-32" target="VAQp6IkPgZ3z1ja0-aQf-65" edge="1">
          <mxGeometry relative="1" as="geometry">
            <Array as="points">
              <mxPoint x="780" y="320" />
              <mxPoint x="780" y="460" />
            </Array>
          </mxGeometry>
        </mxCell>
        <mxCell id="VAQp6IkPgZ3z1ja0-aQf-32" value="&lt;span style=&quot;font-size: 10px;&quot;&gt;url == path&lt;/span&gt;" style="shape=rhombus;perimeter=rhombusPerimeter;whiteSpace=wrap;html=1;align=center;fontFamily=Helvetica;fontSize=11;labelBackgroundColor=none;fillColor=#dae8fc;strokeColor=#6c8ebf;fontColor=#434D66;" parent="1" vertex="1">
          <mxGeometry x="640" y="300" width="80" height="40" as="geometry" />
        </mxCell>
        <mxCell id="VAQp6IkPgZ3z1ja0-aQf-36" value="Ja" style="text;html=1;align=center;verticalAlign=middle;whiteSpace=wrap;rounded=0;fontFamily=Helvetica;fontSize=11;fontColor=#99CCFF;labelBackgroundColor=none;" parent="1" vertex="1">
          <mxGeometry x="726" y="306" width="40" height="16" as="geometry" />
        </mxCell>
        <mxCell id="VAQp6IkPgZ3z1ja0-aQf-39" value="Nein" style="text;html=1;align=center;verticalAlign=middle;whiteSpace=wrap;rounded=0;fontFamily=Helvetica;fontSize=11;fontColor=#99CCFF;labelBackgroundColor=none;" parent="1" vertex="1">
          <mxGeometry x="589" y="306" width="40" height="16" as="geometry" />
        </mxCell>
        <mxCell id="VAQp6IkPgZ3z1ja0-aQf-67" style="edgeStyle=orthogonalEdgeStyle;shape=connector;rounded=0;orthogonalLoop=1;jettySize=auto;html=1;exitX=0.5;exitY=0;exitDx=0;exitDy=0;entryX=0.5;entryY=1;entryDx=0;entryDy=0;strokeColor=#99CCFF;align=center;verticalAlign=middle;fontFamily=Helvetica;fontSize=11;fontColor=default;labelBackgroundColor=default;endArrow=classic;" parent="1" source="VAQp6IkPgZ3z1ja0-aQf-65" target="VAQp6IkPgZ3z1ja0-aQf-31" edge="1">
          <mxGeometry relative="1" as="geometry" />
        </mxCell>
        <mxCell id="VAQp6IkPgZ3z1ja0-aQf-65" value="" style="shape=rhombus;perimeter=rhombusPerimeter;whiteSpace=wrap;html=1;align=center;fontFamily=Helvetica;fontSize=11;labelBackgroundColor=none;fillColor=none;strokeColor=#99CCFF;fontColor=#333333;" parent="1" vertex="1">
          <mxGeometry x="660" y="440" width="40" height="40" as="geometry" />
        </mxCell>
        <mxCell id="VAQp6IkPgZ3z1ja0-aQf-70" value="" style="rounded=1;whiteSpace=wrap;html=1;fontFamily=Helvetica;fontSize=11;labelBackgroundColor=default;fillColor=#dae8fc;strokeColor=#6c8ebf;arcSize=7;" parent="1" vertex="1">
          <mxGeometry x="40" y="720" width="140" height="150" as="geometry" />
        </mxCell>
        <mxCell id="VAQp6IkPgZ3z1ja0-aQf-71" value="&lt;b&gt;store und navigate&lt;/b&gt;" style="text;html=1;align=left;verticalAlign=middle;whiteSpace=wrap;rounded=0;fontFamily=Helvetica;fontSize=11;fontColor=#434D66;labelBackgroundColor=none;" parent="1" vertex="1">
          <mxGeometry x="50" y="720" width="120" height="30" as="geometry" />
        </mxCell>
        <mxCell id="VAQp6IkPgZ3z1ja0-aQf-72" value="&lt;b&gt;dayDescription&lt;/b&gt;&lt;div&gt;&lt;b&gt;dayButtons&lt;/b&gt;&lt;/div&gt;" style="text;html=1;align=left;verticalAlign=middle;whiteSpace=wrap;rounded=0;fontFamily=Helvetica;fontSize=11;fontColor=#434D66;labelBackgroundColor=none;" parent="1" vertex="1">
          <mxGeometry x="50" y="750" width="120" height="30" as="geometry" />
        </mxCell>
        <mxCell id="VAQp6IkPgZ3z1ja0-aQf-73" value="&lt;b&gt;(?) nightDescription&lt;br&gt;&lt;/b&gt;&lt;div&gt;&lt;b style=&quot;background-color: initial;&quot;&gt;(?)&amp;nbsp;&lt;/b&gt;&lt;b style=&quot;background-color: initial;&quot;&gt;night&lt;/b&gt;&lt;b&gt;Buttons&lt;/b&gt;&lt;/div&gt;" style="text;html=1;align=left;verticalAlign=middle;whiteSpace=wrap;rounded=0;fontFamily=Helvetica;fontSize=11;fontColor=#434D66;labelBackgroundColor=none;" parent="1" vertex="1">
          <mxGeometry x="50" y="790" width="120" height="30" as="geometry" />
        </mxCell>
        <mxCell id="VAQp6IkPgZ3z1ja0-aQf-74" value="&lt;b&gt;jsx&lt;/b&gt;&lt;br&gt;&lt;div&gt;&lt;b&gt;&amp;lt;MainPlaceTemplate&amp;gt;&lt;/b&gt;&lt;/div&gt;" style="text;html=1;align=left;verticalAlign=middle;whiteSpace=wrap;rounded=0;fontFamily=Helvetica;fontSize=11;fontColor=#434D66;labelBackgroundColor=none;" parent="1" vertex="1">
          <mxGeometry x="50" y="830" width="180" height="30" as="geometry" />
        </mxCell>
        <mxCell id="VAQp6IkPgZ3z1ja0-aQf-75" value="" style="rounded=1;whiteSpace=wrap;html=1;fontFamily=Helvetica;fontSize=11;labelBackgroundColor=default;fillColor=#dae8fc;strokeColor=#6c8ebf;arcSize=7;" parent="1" vertex="1">
          <mxGeometry x="240" y="720" width="140" height="150" as="geometry" />
        </mxCell>
        <mxCell id="VAQp6IkPgZ3z1ja0-aQf-76" value="&lt;b&gt;has/can/is/show&lt;/b&gt;" style="text;html=1;align=left;verticalAlign=middle;whiteSpace=wrap;rounded=0;fontFamily=Helvetica;fontSize=11;fontColor=#434D66;labelBackgroundColor=none;" parent="1" vertex="1">
          <mxGeometry x="250" y="720" width="120" height="30" as="geometry" />
        </mxCell>
        <mxCell id="VAQp6IkPgZ3z1ja0-aQf-77" value="&lt;b&gt;useLocationEvents&lt;/b&gt;" style="text;html=1;align=left;verticalAlign=middle;whiteSpace=wrap;rounded=0;fontFamily=Helvetica;fontSize=11;fontColor=#434D66;labelBackgroundColor=none;" parent="1" vertex="1">
          <mxGeometry x="250" y="740" width="120" height="30" as="geometry" />
        </mxCell>
        <mxCell id="VAQp6IkPgZ3z1ja0-aQf-78" value="&lt;b&gt;jsx&lt;/b&gt;&lt;div&gt;&lt;b&gt;- title&lt;/b&gt;&lt;/div&gt;&lt;div&gt;&lt;b&gt;- description&lt;/b&gt;&lt;/div&gt;&lt;div&gt;&lt;b&gt;- (!) day View&lt;/b&gt;&lt;/div&gt;&lt;div&gt;&lt;b&gt;- (!) night View&lt;/b&gt;&lt;/div&gt;&lt;div&gt;&lt;b&gt;- (!) event/quest&lt;/b&gt;&lt;/div&gt;&lt;div&gt;&lt;b&gt;- (!) battle&lt;/b&gt;&lt;/div&gt;" style="text;html=1;align=left;verticalAlign=middle;whiteSpace=wrap;rounded=0;fontFamily=Helvetica;fontSize=11;fontColor=#434D66;labelBackgroundColor=none;" parent="1" vertex="1">
          <mxGeometry x="250" y="770" width="120" height="90" as="geometry" />
        </mxCell>
        <mxCell id="VAQp6IkPgZ3z1ja0-aQf-80" value="" style="rounded=1;whiteSpace=wrap;html=1;fontFamily=Helvetica;fontSize=11;labelBackgroundColor=default;fillColor=#dae8fc;strokeColor=#6c8ebf;arcSize=7;" parent="1" vertex="1">
          <mxGeometry x="40" y="910" width="140" height="150" as="geometry" />
        </mxCell>
        <mxCell id="VAQp6IkPgZ3z1ja0-aQf-81" value="&lt;b&gt;possibleEvents&lt;/b&gt;" style="text;html=1;align=left;verticalAlign=middle;whiteSpace=wrap;rounded=0;fontFamily=Helvetica;fontSize=11;fontColor=#434D66;labelBackgroundColor=none;" parent="1" vertex="1">
          <mxGeometry x="50" y="910" width="120" height="30" as="geometry" />
        </mxCell>
        <mxCell id="VAQp6IkPgZ3z1ja0-aQf-82" value="&lt;b&gt;description&lt;/b&gt;&lt;div&gt;&lt;b&gt;noEventHappend&lt;/b&gt;&lt;/div&gt;" style="text;html=1;align=left;verticalAlign=middle;whiteSpace=wrap;rounded=0;fontFamily=Helvetica;fontSize=11;fontColor=#434D66;labelBackgroundColor=none;" parent="1" vertex="1">
          <mxGeometry x="50" y="940" width="120" height="30" as="geometry" />
        </mxCell>
        <mxCell id="VAQp6IkPgZ3z1ja0-aQf-84" value="&lt;b&gt;jsx&lt;/b&gt;&lt;br&gt;&lt;div&gt;&lt;b&gt;&amp;lt;PlaceTemplate&amp;gt;&lt;/b&gt;&lt;/div&gt;" style="text;html=1;align=left;verticalAlign=middle;whiteSpace=wrap;rounded=0;fontFamily=Helvetica;fontSize=11;fontColor=#434D66;labelBackgroundColor=none;" parent="1" vertex="1">
          <mxGeometry x="50" y="980" width="180" height="30" as="geometry" />
        </mxCell>
        <mxCell id="VAQp6IkPgZ3z1ja0-aQf-85" value="" style="rounded=1;whiteSpace=wrap;html=1;fontFamily=Helvetica;fontSize=11;labelBackgroundColor=default;fillColor=#dae8fc;strokeColor=#6c8ebf;arcSize=7;" parent="1" vertex="1">
          <mxGeometry x="240" y="910" width="140" height="150" as="geometry" />
        </mxCell>
        <mxCell id="VAQp6IkPgZ3z1ja0-aQf-86" value="&lt;b&gt;has/can/is/show&lt;/b&gt;" style="text;html=1;align=left;verticalAlign=middle;whiteSpace=wrap;rounded=0;fontFamily=Helvetica;fontSize=11;fontColor=#434D66;labelBackgroundColor=none;" parent="1" vertex="1">
          <mxGeometry x="250" y="910" width="120" height="30" as="geometry" />
        </mxCell>
        <mxCell id="VAQp6IkPgZ3z1ja0-aQf-87" value="&lt;b&gt;useLocationEvents&lt;/b&gt;" style="text;html=1;align=left;verticalAlign=middle;whiteSpace=wrap;rounded=0;fontFamily=Helvetica;fontSize=11;fontColor=#434D66;labelBackgroundColor=none;" parent="1" vertex="1">
          <mxGeometry x="250" y="930" width="120" height="30" as="geometry" />
        </mxCell>
        <mxCell id="VAQp6IkPgZ3z1ja0-aQf-88" value="&lt;b&gt;jsx&lt;/b&gt;&lt;div&gt;&lt;b&gt;- title&lt;/b&gt;&lt;/div&gt;&lt;div&gt;&lt;b&gt;- description&lt;/b&gt;&lt;/div&gt;&lt;div&gt;&lt;b&gt;- (!) event/quest&lt;/b&gt;&lt;/div&gt;&lt;div&gt;&lt;b&gt;- (!) battle&lt;/b&gt;&lt;/div&gt;" style="text;html=1;align=left;verticalAlign=middle;whiteSpace=wrap;rounded=0;fontFamily=Helvetica;fontSize=11;fontColor=#434D66;labelBackgroundColor=none;" parent="1" vertex="1">
          <mxGeometry x="250" y="980" width="120" height="70" as="geometry" />
        </mxCell>
        <mxCell id="VAQp6IkPgZ3z1ja0-aQf-90" value="&lt;b&gt;handleClick()&lt;/b&gt;" style="text;html=1;align=left;verticalAlign=middle;whiteSpace=wrap;rounded=0;fontFamily=Helvetica;fontSize=11;fontColor=#434D66;labelBackgroundColor=none;" parent="1" vertex="1">
          <mxGeometry x="250" y="950" width="120" height="30" as="geometry" />
        </mxCell>
        <mxCell id="X7nKvmQEceXL8asA8oug-7" style="edgeStyle=orthogonalEdgeStyle;rounded=0;orthogonalLoop=1;jettySize=auto;html=1;exitX=1;exitY=0.5;exitDx=0;exitDy=0;entryX=0;entryY=0.5;entryDx=0;entryDy=0;strokeColor=light-dark(#000000,#1E4A76);" edge="1" parent="1" source="X7nKvmQEceXL8asA8oug-1" target="X7nKvmQEceXL8asA8oug-3">
          <mxGeometry relative="1" as="geometry" />
        </mxCell>
        <mxCell id="X7nKvmQEceXL8asA8oug-1" value="Trigger:&lt;div&gt;Wählt Random Event&lt;/div&gt;" style="rounded=1;arcSize=10;whiteSpace=wrap;html=1;align=center;fillColor=#f5f5f5;strokeColor=#666666;fontColor=#434D66;fontStyle=1" vertex="1" parent="1">
          <mxGeometry x="220" y="1481" width="140" height="40" as="geometry" />
        </mxCell>
        <mxCell id="X7nKvmQEceXL8asA8oug-2" value="Combat:&lt;div&gt;Startet Kampf&lt;/div&gt;" style="rounded=1;arcSize=10;whiteSpace=wrap;html=1;align=center;fillColor=#f5f5f5;strokeColor=#666666;fontColor=#434D66;fontStyle=1" vertex="1" parent="1">
          <mxGeometry x="540" y="1321" width="160" height="40" as="geometry" />
        </mxCell>
        <mxCell id="X7nKvmQEceXL8asA8oug-11" style="edgeStyle=orthogonalEdgeStyle;rounded=0;orthogonalLoop=1;jettySize=auto;html=1;exitX=0.5;exitY=0;exitDx=0;exitDy=0;entryX=0.5;entryY=1;entryDx=0;entryDy=0;strokeColor=light-dark(#000000,#1E4A76);" edge="1" parent="1" source="X7nKvmQEceXL8asA8oug-3" target="X7nKvmQEceXL8asA8oug-8">
          <mxGeometry relative="1" as="geometry" />
        </mxCell>
        <mxCell id="X7nKvmQEceXL8asA8oug-3" value="Darstellung" style="rounded=1;arcSize=10;whiteSpace=wrap;html=1;align=center;fillColor=#f5f5f5;strokeColor=#666666;fontColor=#434D66;fontStyle=1" vertex="1" parent="1">
          <mxGeometry x="400" y="1481" width="120" height="40" as="geometry" />
        </mxCell>
        <mxCell id="X7nKvmQEceXL8asA8oug-40" style="edgeStyle=orthogonalEdgeStyle;shape=connector;rounded=0;orthogonalLoop=1;jettySize=auto;html=1;exitX=1;exitY=0.5;exitDx=0;exitDy=0;entryX=0;entryY=0.5;entryDx=0;entryDy=0;strokeColor=#99CCFF;align=center;verticalAlign=middle;fontFamily=Helvetica;fontSize=11;fontColor=default;labelBackgroundColor=default;startArrow=none;startFill=0;endArrow=classic;endFill=1;" edge="1" parent="1" source="X7nKvmQEceXL8asA8oug-4" target="X7nKvmQEceXL8asA8oug-38">
          <mxGeometry relative="1" as="geometry" />
        </mxCell>
        <mxCell id="X7nKvmQEceXL8asA8oug-4" value="Start" style="rounded=1;arcSize=10;whiteSpace=wrap;html=1;align=center;fillColor=#d5e8d4;strokeColor=#82b366;fontColor=#434D66;fontStyle=1" vertex="1" parent="1">
          <mxGeometry x="20" y="1481" width="40" height="40" as="geometry" />
        </mxCell>
        <mxCell id="X7nKvmQEceXL8asA8oug-6" value="Event[]" style="text;html=1;align=center;verticalAlign=middle;whiteSpace=wrap;rounded=0;fontColor=light-dark(#000000,#808080);" vertex="1" parent="1">
          <mxGeometry x="70" y="1481" width="60" height="20" as="geometry" />
        </mxCell>
        <mxCell id="X7nKvmQEceXL8asA8oug-12" style="edgeStyle=orthogonalEdgeStyle;rounded=0;orthogonalLoop=1;jettySize=auto;html=1;exitX=0.5;exitY=0;exitDx=0;exitDy=0;entryX=0.5;entryY=1;entryDx=0;entryDy=0;strokeColor=light-dark(#000000,#1E4A76);" edge="1" parent="1" source="X7nKvmQEceXL8asA8oug-8" target="X7nKvmQEceXL8asA8oug-9">
          <mxGeometry relative="1" as="geometry" />
        </mxCell>
        <mxCell id="X7nKvmQEceXL8asA8oug-18" style="edgeStyle=orthogonalEdgeStyle;rounded=0;orthogonalLoop=1;jettySize=auto;html=1;exitX=1;exitY=0.5;exitDx=0;exitDy=0;entryX=0;entryY=0.5;entryDx=0;entryDy=0;strokeColor=light-dark(#000000,#1E4A76);" edge="1" parent="1" source="X7nKvmQEceXL8asA8oug-8" target="X7nKvmQEceXL8asA8oug-2">
          <mxGeometry relative="1" as="geometry" />
        </mxCell>
        <mxCell id="X7nKvmQEceXL8asA8oug-8" value="&lt;span style=&quot;font-size: 10px;&quot;&gt;ist&lt;/span&gt;&lt;div&gt;&lt;span style=&quot;font-size: 10px;&quot;&gt;Kampf&lt;/span&gt;&lt;/div&gt;" style="shape=rhombus;perimeter=rhombusPerimeter;whiteSpace=wrap;html=1;align=center;fontFamily=Helvetica;fontSize=11;labelBackgroundColor=none;fillColor=#dae8fc;strokeColor=#6c8ebf;fontColor=#434D66;" vertex="1" parent="1">
          <mxGeometry x="420" y="1321" width="80" height="40" as="geometry" />
        </mxCell>
        <mxCell id="X7nKvmQEceXL8asA8oug-13" style="edgeStyle=orthogonalEdgeStyle;rounded=0;orthogonalLoop=1;jettySize=auto;html=1;exitX=0.5;exitY=0;exitDx=0;exitDy=0;entryX=0.5;entryY=1;entryDx=0;entryDy=0;strokeColor=light-dark(#000000,#1E4A76);" edge="1" parent="1" source="X7nKvmQEceXL8asA8oug-9" target="X7nKvmQEceXL8asA8oug-10">
          <mxGeometry relative="1" as="geometry" />
        </mxCell>
        <mxCell id="X7nKvmQEceXL8asA8oug-19" style="edgeStyle=orthogonalEdgeStyle;rounded=0;orthogonalLoop=1;jettySize=auto;html=1;exitX=1;exitY=0.5;exitDx=0;exitDy=0;entryX=0;entryY=0.5;entryDx=0;entryDy=0;strokeColor=light-dark(#000000,#1E4A76);" edge="1" parent="1" source="X7nKvmQEceXL8asA8oug-9" target="X7nKvmQEceXL8asA8oug-17">
          <mxGeometry relative="1" as="geometry" />
        </mxCell>
        <mxCell id="X7nKvmQEceXL8asA8oug-9" value="&lt;span style=&quot;font-size: 10px;&quot;&gt;ist&lt;/span&gt;&lt;div&gt;&lt;span style=&quot;font-size: 10px;&quot;&gt;Quest&lt;/span&gt;&lt;/div&gt;" style="shape=rhombus;perimeter=rhombusPerimeter;whiteSpace=wrap;html=1;align=center;fontFamily=Helvetica;fontSize=11;labelBackgroundColor=none;fillColor=#dae8fc;strokeColor=#6c8ebf;fontColor=#434D66;" vertex="1" parent="1">
          <mxGeometry x="420" y="1241" width="80" height="40" as="geometry" />
        </mxCell>
        <mxCell id="X7nKvmQEceXL8asA8oug-22" style="edgeStyle=orthogonalEdgeStyle;rounded=0;orthogonalLoop=1;jettySize=auto;html=1;exitX=0;exitY=0.5;exitDx=0;exitDy=0;entryX=0.5;entryY=0;entryDx=0;entryDy=0;strokeColor=light-dark(#000000,#1E4A76);" edge="1" parent="1" source="X7nKvmQEceXL8asA8oug-10" target="X7nKvmQEceXL8asA8oug-38">
          <mxGeometry relative="1" as="geometry">
            <Array as="points">
              <mxPoint x="380" y="1180" />
              <mxPoint x="380" y="1440" />
              <mxPoint x="160" y="1440" />
            </Array>
          </mxGeometry>
        </mxCell>
        <mxCell id="X7nKvmQEceXL8asA8oug-32" style="edgeStyle=none;shape=connector;rounded=0;orthogonalLoop=1;jettySize=auto;html=1;exitX=1;exitY=0.5;exitDx=0;exitDy=0;entryX=0;entryY=0.5;entryDx=0;entryDy=0;strokeColor=#99CCFF;align=center;verticalAlign=middle;fontFamily=Helvetica;fontSize=11;fontColor=default;labelBackgroundColor=default;startArrow=none;startFill=0;endArrow=classic;endFill=1;" edge="1" parent="1" source="X7nKvmQEceXL8asA8oug-10" target="X7nKvmQEceXL8asA8oug-30">
          <mxGeometry relative="1" as="geometry" />
        </mxCell>
        <mxCell id="X7nKvmQEceXL8asA8oug-10" value="&lt;span style=&quot;font-size: 10px;&quot;&gt;hat&lt;/span&gt;&lt;div&gt;&lt;span style=&quot;font-size: 10px;&quot;&gt;Event&lt;/span&gt;&lt;/div&gt;" style="shape=rhombus;perimeter=rhombusPerimeter;whiteSpace=wrap;html=1;align=center;fontFamily=Helvetica;fontSize=11;labelBackgroundColor=none;fillColor=#dae8fc;strokeColor=#6c8ebf;fontColor=#434D66;" vertex="1" parent="1">
          <mxGeometry x="420" y="1160" width="80" height="40" as="geometry" />
        </mxCell>
        <mxCell id="X7nKvmQEceXL8asA8oug-14" value="Ja" style="text;html=1;align=center;verticalAlign=middle;whiteSpace=wrap;rounded=0;fontFamily=Helvetica;fontSize=11;fontColor=#99CCFF;labelBackgroundColor=none;" vertex="1" parent="1">
          <mxGeometry x="500" y="1326" width="20" height="16" as="geometry" />
        </mxCell>
        <mxCell id="X7nKvmQEceXL8asA8oug-15" value="Nein" style="text;html=1;align=center;verticalAlign=middle;whiteSpace=wrap;rounded=0;fontFamily=Helvetica;fontSize=11;fontColor=#99CCFF;labelBackgroundColor=none;" vertex="1" parent="1">
          <mxGeometry x="434" y="1305" width="26" height="16" as="geometry" />
        </mxCell>
        <mxCell id="X7nKvmQEceXL8asA8oug-16" value="Nein" style="text;html=1;align=center;verticalAlign=middle;whiteSpace=wrap;rounded=0;fontFamily=Helvetica;fontSize=11;fontColor=#99CCFF;labelBackgroundColor=none;" vertex="1" parent="1">
          <mxGeometry x="434" y="1225" width="26" height="16" as="geometry" />
        </mxCell>
        <mxCell id="X7nKvmQEceXL8asA8oug-17" value="Quest:&lt;div&gt;Startet Aufgabe&lt;/div&gt;" style="rounded=1;arcSize=10;whiteSpace=wrap;html=1;align=center;fillColor=#f5f5f5;strokeColor=#666666;fontColor=#434D66;fontStyle=1" vertex="1" parent="1">
          <mxGeometry x="590" y="1241" width="160" height="40" as="geometry" />
        </mxCell>
        <mxCell id="X7nKvmQEceXL8asA8oug-21" value="Ja" style="text;html=1;align=center;verticalAlign=middle;whiteSpace=wrap;rounded=0;fontFamily=Helvetica;fontSize=11;fontColor=#99CCFF;labelBackgroundColor=none;" vertex="1" parent="1">
          <mxGeometry x="500" y="1246" width="20" height="16" as="geometry" />
        </mxCell>
        <mxCell id="X7nKvmQEceXL8asA8oug-23" value="Ja" style="text;html=1;align=center;verticalAlign=middle;whiteSpace=wrap;rounded=0;fontFamily=Helvetica;fontSize=11;fontColor=#99CCFF;labelBackgroundColor=none;" vertex="1" parent="1">
          <mxGeometry x="400" y="1165" width="20" height="16" as="geometry" />
        </mxCell>
        <mxCell id="X7nKvmQEceXL8asA8oug-24" value="Ende" style="rounded=1;arcSize=10;whiteSpace=wrap;html=1;align=center;fillColor=light-dark(#D5E8D4,#663300);strokeColor=light-dark(#D5E8D4,#402100);fontColor=#434D66;fontStyle=1" vertex="1" parent="1">
          <mxGeometry x="700" y="1481" width="40" height="40" as="geometry" />
        </mxCell>
        <mxCell id="X7nKvmQEceXL8asA8oug-29" value="Klick auf&amp;nbsp;&lt;span style=&quot;background-color: transparent; color: light-dark(rgb(0, 0, 0), rgb(128, 128, 128));&quot;&gt;Button&lt;/span&gt;" style="text;html=1;align=left;verticalAlign=middle;whiteSpace=wrap;rounded=0;fontColor=light-dark(#000000,#808080);rotation=-90;" vertex="1" parent="1">
          <mxGeometry x="416" y="1410" width="110" height="20" as="geometry" />
        </mxCell>
        <mxCell id="X7nKvmQEceXL8asA8oug-55" style="edgeStyle=orthogonalEdgeStyle;shape=connector;rounded=0;orthogonalLoop=1;jettySize=auto;html=1;exitX=0.75;exitY=1;exitDx=0;exitDy=0;entryX=0.75;entryY=0;entryDx=0;entryDy=0;strokeColor=#99CCFF;align=center;verticalAlign=middle;fontFamily=Helvetica;fontSize=11;fontColor=default;labelBackgroundColor=default;startArrow=none;startFill=0;endArrow=classic;endFill=1;" edge="1" parent="1" source="X7nKvmQEceXL8asA8oug-30" target="X7nKvmQEceXL8asA8oug-52">
          <mxGeometry relative="1" as="geometry" />
        </mxCell>
        <mxCell id="X7nKvmQEceXL8asA8oug-30" value="Trigger:&lt;div&gt;Darstellung Abschluss&lt;/div&gt;" style="rounded=1;arcSize=10;whiteSpace=wrap;html=1;align=center;fillColor=#f5f5f5;strokeColor=#666666;fontColor=#434D66;fontStyle=1" vertex="1" parent="1">
          <mxGeometry x="640" y="1160" width="160" height="40" as="geometry" />
        </mxCell>
        <mxCell id="X7nKvmQEceXL8asA8oug-37" value="Nein" style="text;html=1;align=center;verticalAlign=middle;whiteSpace=wrap;rounded=0;fontFamily=Helvetica;fontSize=11;fontColor=#99CCFF;labelBackgroundColor=none;" vertex="1" parent="1">
          <mxGeometry x="500" y="1165" width="26" height="16" as="geometry" />
        </mxCell>
        <mxCell id="X7nKvmQEceXL8asA8oug-39" style="edgeStyle=orthogonalEdgeStyle;shape=connector;rounded=0;orthogonalLoop=1;jettySize=auto;html=1;exitX=1;exitY=0.5;exitDx=0;exitDy=0;entryX=0;entryY=0.5;entryDx=0;entryDy=0;strokeColor=#99CCFF;align=center;verticalAlign=middle;fontFamily=Helvetica;fontSize=11;fontColor=default;labelBackgroundColor=default;startArrow=none;startFill=0;endArrow=classic;endFill=1;" edge="1" parent="1" source="X7nKvmQEceXL8asA8oug-38" target="X7nKvmQEceXL8asA8oug-1">
          <mxGeometry relative="1" as="geometry" />
        </mxCell>
        <mxCell id="X7nKvmQEceXL8asA8oug-38" value="" style="shape=rhombus;perimeter=rhombusPerimeter;whiteSpace=wrap;html=1;align=center;fontFamily=Helvetica;fontSize=11;labelBackgroundColor=none;fillColor=none;strokeColor=#99CCFF;fontColor=#333333;" vertex="1" parent="1">
          <mxGeometry x="140" y="1481" width="40" height="40" as="geometry" />
        </mxCell>
        <mxCell id="X7nKvmQEceXL8asA8oug-43" value="" style="group" vertex="1" connectable="0" parent="1">
          <mxGeometry x="50" y="831" width="120" height="30" as="geometry" />
        </mxCell>
        <mxCell id="X7nKvmQEceXL8asA8oug-41" value="" style="rounded=0;whiteSpace=wrap;html=1;fontFamily=Helvetica;fontSize=11;fontColor=#ffffff;labelBackgroundColor=default;fillColor=none;strokeColor=#2D7600;strokeWidth=2;" vertex="1" parent="X7nKvmQEceXL8asA8oug-43">
          <mxGeometry width="120" height="30" as="geometry" />
        </mxCell>
        <mxCell id="X7nKvmQEceXL8asA8oug-42" style="edgeStyle=orthogonalEdgeStyle;shape=connector;rounded=0;orthogonalLoop=1;jettySize=auto;html=1;exitX=1;exitY=0.5;exitDx=0;exitDy=0;entryX=-0.015;entryY=0.841;entryDx=0;entryDy=0;entryPerimeter=0;strokeColor=#2D7600;align=center;verticalAlign=middle;fontFamily=Helvetica;fontSize=11;fontColor=default;labelBackgroundColor=default;startArrow=none;startFill=0;endArrow=classic;endFill=1;fillColor=#60a917;strokeWidth=2;" edge="1" parent="X7nKvmQEceXL8asA8oug-43" source="X7nKvmQEceXL8asA8oug-41" target="VAQp6IkPgZ3z1ja0-aQf-75">
          <mxGeometry relative="1" as="geometry" />
        </mxCell>
        <mxCell id="X7nKvmQEceXL8asA8oug-48" value="" style="group" vertex="1" connectable="0" parent="1">
          <mxGeometry x="50" y="980" width="120" height="30" as="geometry" />
        </mxCell>
        <mxCell id="X7nKvmQEceXL8asA8oug-49" value="" style="rounded=0;whiteSpace=wrap;html=1;fontFamily=Helvetica;fontSize=11;fontColor=#ffffff;labelBackgroundColor=default;fillColor=none;strokeColor=#2D7600;strokeWidth=2;" vertex="1" parent="X7nKvmQEceXL8asA8oug-48">
          <mxGeometry width="120" height="30" as="geometry" />
        </mxCell>
        <mxCell id="X7nKvmQEceXL8asA8oug-50" style="edgeStyle=orthogonalEdgeStyle;shape=connector;rounded=0;orthogonalLoop=1;jettySize=auto;html=1;exitX=1;exitY=0.5;exitDx=0;exitDy=0;entryX=-0.015;entryY=0.841;entryDx=0;entryDy=0;entryPerimeter=0;strokeColor=#2D7600;align=center;verticalAlign=middle;fontFamily=Helvetica;fontSize=11;fontColor=default;labelBackgroundColor=default;startArrow=none;startFill=0;endArrow=classic;endFill=1;fillColor=#60a917;strokeWidth=2;" edge="1" parent="X7nKvmQEceXL8asA8oug-48" source="X7nKvmQEceXL8asA8oug-49">
          <mxGeometry relative="1" as="geometry" />
        </mxCell>
        <mxCell id="X7nKvmQEceXL8asA8oug-51" style="edgeStyle=orthogonalEdgeStyle;shape=connector;rounded=0;orthogonalLoop=1;jettySize=auto;html=1;exitX=1;exitY=0.5;exitDx=0;exitDy=0;entryX=-0.015;entryY=0.569;entryDx=0;entryDy=0;entryPerimeter=0;strokeColor=#2D7600;align=center;verticalAlign=middle;fontFamily=Helvetica;fontSize=11;fontColor=default;labelBackgroundColor=default;startArrow=none;startFill=0;endArrow=classic;endFill=1;fillColor=#60a917;strokeWidth=2;" edge="1" parent="1" source="X7nKvmQEceXL8asA8oug-49" target="VAQp6IkPgZ3z1ja0-aQf-85">
          <mxGeometry relative="1" as="geometry" />
        </mxCell>
        <mxCell id="X7nKvmQEceXL8asA8oug-56" style="edgeStyle=orthogonalEdgeStyle;shape=connector;rounded=0;orthogonalLoop=1;jettySize=auto;html=1;exitX=0.5;exitY=1;exitDx=0;exitDy=0;entryX=0.5;entryY=0;entryDx=0;entryDy=0;strokeColor=#99CCFF;align=center;verticalAlign=middle;fontFamily=Helvetica;fontSize=11;fontColor=default;labelBackgroundColor=default;startArrow=none;startFill=0;endArrow=classic;endFill=1;" edge="1" parent="1" source="X7nKvmQEceXL8asA8oug-52" target="X7nKvmQEceXL8asA8oug-24">
          <mxGeometry relative="1" as="geometry" />
        </mxCell>
        <mxCell id="X7nKvmQEceXL8asA8oug-52" value="GameAction:&lt;div&gt;Verarbeitet Ergebnis&lt;/div&gt;" style="rounded=1;arcSize=10;whiteSpace=wrap;html=1;align=center;fillColor=#f5f5f5;strokeColor=#666666;fontColor=#434D66;fontStyle=1" vertex="1" parent="1">
          <mxGeometry x="640" y="1400" width="160" height="40" as="geometry" />
        </mxCell>
        <mxCell id="X7nKvmQEceXL8asA8oug-53" style="edgeStyle=orthogonalEdgeStyle;shape=connector;rounded=0;orthogonalLoop=1;jettySize=auto;html=1;exitX=0.75;exitY=1;exitDx=0;exitDy=0;entryX=0.442;entryY=0.025;entryDx=0;entryDy=0;entryPerimeter=0;strokeColor=#99CCFF;align=center;verticalAlign=middle;fontFamily=Helvetica;fontSize=11;fontColor=default;labelBackgroundColor=default;startArrow=none;startFill=0;endArrow=classic;endFill=1;" edge="1" parent="1" source="X7nKvmQEceXL8asA8oug-17" target="X7nKvmQEceXL8asA8oug-52">
          <mxGeometry relative="1" as="geometry" />
        </mxCell>
        <mxCell id="X7nKvmQEceXL8asA8oug-54" style="edgeStyle=orthogonalEdgeStyle;shape=connector;rounded=0;orthogonalLoop=1;jettySize=auto;html=1;exitX=0.75;exitY=1;exitDx=0;exitDy=0;entryX=0.125;entryY=0;entryDx=0;entryDy=0;entryPerimeter=0;strokeColor=#99CCFF;align=center;verticalAlign=middle;fontFamily=Helvetica;fontSize=11;fontColor=default;labelBackgroundColor=default;startArrow=none;startFill=0;endArrow=classic;endFill=1;" edge="1" parent="1" source="X7nKvmQEceXL8asA8oug-2" target="X7nKvmQEceXL8asA8oug-52">
          <mxGeometry relative="1" as="geometry" />
        </mxCell>
        <mxCell id="X7nKvmQEceXL8asA8oug-101" value="1" style="rounded=1;arcSize=10;whiteSpace=wrap;html=1;align=center;fillColor=#f5f5f5;strokeColor=#666666;fontColor=#434D66;fontStyle=1" vertex="1" parent="1">
          <mxGeometry x="40" y="1960" width="20" height="20" as="geometry" />
        </mxCell>
        <mxCell id="X7nKvmQEceXL8asA8oug-102" value="2" style="rounded=1;arcSize=10;whiteSpace=wrap;html=1;align=center;fillColor=#f5f5f5;strokeColor=#666666;fontColor=#434D66;fontStyle=1" vertex="1" parent="1">
          <mxGeometry x="70" y="1960" width="20" height="20" as="geometry" />
        </mxCell>
        <mxCell id="X7nKvmQEceXL8asA8oug-103" value="3" style="rounded=1;arcSize=10;whiteSpace=wrap;html=1;align=center;fillColor=#f5f5f5;strokeColor=#666666;fontColor=#434D66;fontStyle=1" vertex="1" parent="1">
          <mxGeometry x="100" y="1960" width="20" height="20" as="geometry" />
        </mxCell>
        <mxCell id="X7nKvmQEceXL8asA8oug-104" value="4" style="rounded=1;arcSize=10;whiteSpace=wrap;html=1;align=center;fillColor=#f5f5f5;strokeColor=#666666;fontColor=#434D66;fontStyle=1" vertex="1" parent="1">
          <mxGeometry x="130" y="1960" width="20" height="20" as="geometry" />
        </mxCell>
        <mxCell id="X7nKvmQEceXL8asA8oug-105" value="5" style="rounded=1;arcSize=10;whiteSpace=wrap;html=1;align=center;fillColor=#f5f5f5;strokeColor=#666666;fontColor=#434D66;fontStyle=1" vertex="1" parent="1">
          <mxGeometry x="160" y="1960" width="20" height="20" as="geometry" />
        </mxCell>
        <mxCell id="X7nKvmQEceXL8asA8oug-106" value="6" style="rounded=1;arcSize=10;whiteSpace=wrap;html=1;align=center;fillColor=#f5f5f5;strokeColor=#666666;fontColor=#434D66;fontStyle=1" vertex="1" parent="1">
          <mxGeometry x="190" y="1960" width="20" height="20" as="geometry" />
        </mxCell>
        <mxCell id="X7nKvmQEceXL8asA8oug-107" value="7" style="rounded=1;arcSize=10;whiteSpace=wrap;html=1;align=center;fillColor=#f5f5f5;strokeColor=#666666;fontColor=#434D66;fontStyle=1" vertex="1" parent="1">
          <mxGeometry x="220" y="1960" width="20" height="20" as="geometry" />
        </mxCell>
        <mxCell id="X7nKvmQEceXL8asA8oug-108" value="8" style="rounded=1;arcSize=10;whiteSpace=wrap;html=1;align=center;fillColor=#f5f5f5;strokeColor=#666666;fontColor=#434D66;fontStyle=1" vertex="1" parent="1">
          <mxGeometry x="250" y="1960" width="20" height="20" as="geometry" />
        </mxCell>
        <mxCell id="X7nKvmQEceXL8asA8oug-109" value="9" style="rounded=1;arcSize=10;whiteSpace=wrap;html=1;align=center;fillColor=#f5f5f5;strokeColor=#666666;fontColor=#434D66;fontStyle=1" vertex="1" parent="1">
          <mxGeometry x="280" y="1960" width="20" height="20" as="geometry" />
        </mxCell>
        <mxCell id="X7nKvmQEceXL8asA8oug-110" value="10" style="rounded=1;arcSize=10;whiteSpace=wrap;html=1;align=center;fillColor=#f5f5f5;strokeColor=#666666;fontColor=#434D66;fontStyle=1" vertex="1" parent="1">
          <mxGeometry x="310" y="1960" width="20" height="20" as="geometry" />
        </mxCell>
        <mxCell id="X7nKvmQEceXL8asA8oug-111" value="Player&lt;div&gt;Values&lt;/div&gt;" style="rounded=1;arcSize=10;whiteSpace=wrap;html=1;align=center;fillColor=#f5f5f5;strokeColor=#666666;fontColor=#434D66;fontStyle=1;dashed=1;" vertex="1" parent="1">
          <mxGeometry x="40" y="1900" width="120" height="40" as="geometry" />
        </mxCell>
        <mxCell id="X7nKvmQEceXL8asA8oug-112" value="Enemy&lt;br&gt;&lt;div&gt;Values&lt;/div&gt;" style="rounded=1;arcSize=10;whiteSpace=wrap;html=1;align=center;fillColor=#f5f5f5;strokeColor=#666666;fontColor=#434D66;fontStyle=1;dashed=1;" vertex="1" parent="1">
          <mxGeometry x="210" y="1900" width="120" height="40" as="geometry" />
        </mxCell>
        <mxCell id="X7nKvmQEceXL8asA8oug-113" value="VS" style="text;html=1;align=center;verticalAlign=middle;whiteSpace=wrap;rounded=0;fontColor=light-dark(#000000,#808080);" vertex="1" parent="1">
          <mxGeometry x="170" y="1910" width="30" height="20" as="geometry" />
        </mxCell>
        <mxCell id="X7nKvmQEceXL8asA8oug-114" value="Angreifen" style="rounded=1;arcSize=10;whiteSpace=wrap;html=1;align=center;fillColor=#f5f5f5;strokeColor=#666666;fontColor=#434D66;fontStyle=1" vertex="1" parent="1">
          <mxGeometry x="40" y="2040" width="140" height="20" as="geometry" />
        </mxCell>
        <mxCell id="X7nKvmQEceXL8asA8oug-115" value="Inventar" style="rounded=1;arcSize=10;whiteSpace=wrap;html=1;align=center;fillColor=#f5f5f5;strokeColor=#666666;fontColor=#434D66;fontStyle=1" vertex="1" parent="1">
          <mxGeometry x="190" y="2040" width="140" height="20" as="geometry" />
        </mxCell>
        <mxCell id="X7nKvmQEceXL8asA8oug-116" value="Verteidigen" style="rounded=1;arcSize=10;whiteSpace=wrap;html=1;align=center;fillColor=#f5f5f5;strokeColor=#666666;fontColor=#434D66;fontStyle=1" vertex="1" parent="1">
          <mxGeometry x="40" y="2070" width="140" height="20" as="geometry" />
        </mxCell>
        <mxCell id="X7nKvmQEceXL8asA8oug-117" value="Benutzten" style="rounded=1;arcSize=10;whiteSpace=wrap;html=1;align=center;fillColor=#f5f5f5;strokeColor=#666666;fontColor=#434D66;fontStyle=1" vertex="1" parent="1">
          <mxGeometry x="190" y="2070" width="140" height="20" as="geometry" />
        </mxCell>
        <mxCell id="X7nKvmQEceXL8asA8oug-118" value="Fähigkeit" style="rounded=1;arcSize=10;whiteSpace=wrap;html=1;align=center;fillColor=#f5f5f5;strokeColor=#666666;fontColor=#434D66;fontStyle=1" vertex="1" parent="1">
          <mxGeometry x="40" y="2100" width="140" height="20" as="geometry" />
        </mxCell>
        <mxCell id="X7nKvmQEceXL8asA8oug-119" value="Fliehen" style="rounded=1;arcSize=10;whiteSpace=wrap;html=1;align=center;fillColor=#f5f5f5;strokeColor=#666666;fontColor=#434D66;fontStyle=1" vertex="1" parent="1">
          <mxGeometry x="190" y="2100" width="140" height="20" as="geometry" />
        </mxCell>
        <mxCell id="X7nKvmQEceXL8asA8oug-120" value="Log" style="rounded=1;arcSize=10;whiteSpace=wrap;html=1;align=center;fillColor=#f5f5f5;strokeColor=#666666;fontColor=#434D66;fontStyle=1;dashed=1;" vertex="1" parent="1">
          <mxGeometry x="40" y="1990" width="290" height="40" as="geometry" />
        </mxCell>
        <mxCell id="X7nKvmQEceXL8asA8oug-127" style="edgeStyle=orthogonalEdgeStyle;shape=connector;rounded=0;orthogonalLoop=1;jettySize=auto;html=1;exitX=1;exitY=0.5;exitDx=0;exitDy=0;entryX=0;entryY=0.5;entryDx=0;entryDy=0;strokeColor=#99CCFF;align=center;verticalAlign=middle;fontFamily=Helvetica;fontSize=11;fontColor=default;labelBackgroundColor=default;startArrow=none;startFill=0;endArrow=classic;endFill=1;" edge="1" parent="1" source="X7nKvmQEceXL8asA8oug-121" target="X7nKvmQEceXL8asA8oug-123">
          <mxGeometry relative="1" as="geometry" />
        </mxCell>
        <mxCell id="X7nKvmQEceXL8asA8oug-121" value="Handle&lt;div&gt;Action&lt;/div&gt;" style="rounded=1;arcSize=10;whiteSpace=wrap;html=1;align=center;fillColor=#f5f5f5;strokeColor=#666666;fontColor=#434D66;fontStyle=1" vertex="1" parent="1">
          <mxGeometry x="495" y="2080" width="120" height="40" as="geometry" />
        </mxCell>
        <mxCell id="X7nKvmQEceXL8asA8oug-131" style="edgeStyle=orthogonalEdgeStyle;shape=connector;rounded=0;orthogonalLoop=1;jettySize=auto;html=1;exitX=1;exitY=0.5;exitDx=0;exitDy=0;entryX=0;entryY=0.5;entryDx=0;entryDy=0;strokeColor=#99CCFF;align=center;verticalAlign=middle;fontFamily=Helvetica;fontSize=11;fontColor=default;labelBackgroundColor=default;startArrow=none;startFill=0;endArrow=classic;endFill=1;" edge="1" parent="1" source="X7nKvmQEceXL8asA8oug-122" target="X7nKvmQEceXL8asA8oug-130">
          <mxGeometry relative="1" as="geometry" />
        </mxCell>
        <mxCell id="X7nKvmQEceXL8asA8oug-122" value="Start" style="rounded=1;arcSize=10;whiteSpace=wrap;html=1;align=center;fillColor=#d5e8d4;strokeColor=#82b366;fontColor=#434D66;fontStyle=1" vertex="1" parent="1">
          <mxGeometry x="360" y="2080" width="40" height="40" as="geometry" />
        </mxCell>
        <mxCell id="X7nKvmQEceXL8asA8oug-170" style="edgeStyle=orthogonalEdgeStyle;shape=connector;rounded=0;orthogonalLoop=1;jettySize=auto;html=1;exitX=0.5;exitY=0;exitDx=0;exitDy=0;entryX=0.5;entryY=1;entryDx=0;entryDy=0;strokeColor=#99CCFF;align=center;verticalAlign=middle;fontFamily=Helvetica;fontSize=11;fontColor=default;labelBackgroundColor=default;startArrow=none;startFill=0;endArrow=classic;endFill=1;" edge="1" parent="1" source="X7nKvmQEceXL8asA8oug-123" target="X7nKvmQEceXL8asA8oug-124">
          <mxGeometry relative="1" as="geometry" />
        </mxCell>
        <mxCell id="X7nKvmQEceXL8asA8oug-123" value="Starte Runde&lt;div&gt;Render Animation&lt;/div&gt;" style="rounded=1;arcSize=10;whiteSpace=wrap;html=1;align=center;fillColor=#f5f5f5;strokeColor=#666666;fontColor=#434D66;fontStyle=1" vertex="1" parent="1">
          <mxGeometry x="636" y="2080" width="120" height="40" as="geometry" />
        </mxCell>
        <mxCell id="X7nKvmQEceXL8asA8oug-171" style="edgeStyle=orthogonalEdgeStyle;shape=connector;rounded=0;orthogonalLoop=1;jettySize=auto;html=1;exitX=0.5;exitY=0;exitDx=0;exitDy=0;entryX=0.5;entryY=1;entryDx=0;entryDy=0;strokeColor=#99CCFF;align=center;verticalAlign=middle;fontFamily=Helvetica;fontSize=11;fontColor=default;labelBackgroundColor=default;startArrow=none;startFill=0;endArrow=classic;endFill=1;" edge="1" parent="1" source="X7nKvmQEceXL8asA8oug-124" target="X7nKvmQEceXL8asA8oug-125">
          <mxGeometry relative="1" as="geometry" />
        </mxCell>
        <mxCell id="X7nKvmQEceXL8asA8oug-124" value="Starte&lt;div&gt;Process&lt;/div&gt;" style="rounded=1;arcSize=10;whiteSpace=wrap;html=1;align=center;fillColor=#f5f5f5;strokeColor=#666666;fontColor=#434D66;fontStyle=1" vertex="1" parent="1">
          <mxGeometry x="636" y="2020" width="120" height="40" as="geometry" />
        </mxCell>
        <mxCell id="X7nKvmQEceXL8asA8oug-169" style="edgeStyle=orthogonalEdgeStyle;shape=connector;rounded=0;orthogonalLoop=1;jettySize=auto;html=1;exitX=0;exitY=0.5;exitDx=0;exitDy=0;entryX=1;entryY=0.5;entryDx=0;entryDy=0;strokeColor=#99CCFF;align=center;verticalAlign=middle;fontFamily=Helvetica;fontSize=11;fontColor=default;labelBackgroundColor=default;startArrow=none;startFill=0;endArrow=classic;endFill=1;" edge="1" parent="1" source="X7nKvmQEceXL8asA8oug-125" target="X7nKvmQEceXL8asA8oug-134">
          <mxGeometry relative="1" as="geometry" />
        </mxCell>
        <mxCell id="X7nKvmQEceXL8asA8oug-125" value="Würfel&amp;nbsp;&lt;div&gt;Erstschlag&lt;/div&gt;" style="rounded=1;arcSize=10;whiteSpace=wrap;html=1;align=center;fillColor=#f5f5f5;strokeColor=#666666;fontColor=#434D66;fontStyle=1" vertex="1" parent="1">
          <mxGeometry x="636" y="1960" width="120" height="40" as="geometry" />
        </mxCell>
        <mxCell id="X7nKvmQEceXL8asA8oug-132" style="edgeStyle=orthogonalEdgeStyle;shape=connector;rounded=0;orthogonalLoop=1;jettySize=auto;html=1;exitX=1;exitY=0.5;exitDx=0;exitDy=0;entryX=0;entryY=0.5;entryDx=0;entryDy=0;strokeColor=#99CCFF;align=center;verticalAlign=middle;fontFamily=Helvetica;fontSize=11;fontColor=default;labelBackgroundColor=default;startArrow=none;startFill=0;endArrow=classic;endFill=1;" edge="1" parent="1" source="X7nKvmQEceXL8asA8oug-130" target="X7nKvmQEceXL8asA8oug-121">
          <mxGeometry relative="1" as="geometry" />
        </mxCell>
        <mxCell id="X7nKvmQEceXL8asA8oug-130" value="" style="shape=rhombus;perimeter=rhombusPerimeter;whiteSpace=wrap;html=1;align=center;fontFamily=Helvetica;fontSize=11;labelBackgroundColor=none;fillColor=none;strokeColor=#99CCFF;fontColor=#333333;" vertex="1" parent="1">
          <mxGeometry x="426" y="2080" width="40" height="40" as="geometry" />
        </mxCell>
        <mxCell id="X7nKvmQEceXL8asA8oug-167" style="edgeStyle=orthogonalEdgeStyle;shape=connector;rounded=0;orthogonalLoop=1;jettySize=auto;html=1;exitX=0.5;exitY=1;exitDx=0;exitDy=0;entryX=0.5;entryY=1;entryDx=0;entryDy=0;strokeColor=#99CCFF;align=center;verticalAlign=middle;fontFamily=Helvetica;fontSize=11;fontColor=default;labelBackgroundColor=default;startArrow=none;startFill=0;endArrow=classic;endFill=1;" edge="1" parent="1" source="X7nKvmQEceXL8asA8oug-134" target="X7nKvmQEceXL8asA8oug-135">
          <mxGeometry relative="1" as="geometry" />
        </mxCell>
        <mxCell id="X7nKvmQEceXL8asA8oug-168" style="edgeStyle=orthogonalEdgeStyle;shape=connector;rounded=0;orthogonalLoop=1;jettySize=auto;html=1;exitX=0.5;exitY=0;exitDx=0;exitDy=0;entryX=0.5;entryY=0;entryDx=0;entryDy=0;strokeColor=#99CCFF;align=center;verticalAlign=middle;fontFamily=Helvetica;fontSize=11;fontColor=default;labelBackgroundColor=default;startArrow=none;startFill=0;endArrow=classic;endFill=1;" edge="1" parent="1" source="X7nKvmQEceXL8asA8oug-134" target="X7nKvmQEceXL8asA8oug-136">
          <mxGeometry relative="1" as="geometry" />
        </mxCell>
        <mxCell id="X7nKvmQEceXL8asA8oug-134" value="&lt;div style=&quot;line-height: 90%;&quot;&gt;&lt;span style=&quot;font-size: 10px; line-height: 90%;&quot;&gt;Player&lt;/span&gt;&lt;div&gt;&lt;span style=&quot;font-size: 10px; line-height: 90%;&quot;&gt;Erstschlag&lt;/span&gt;&lt;/div&gt;&lt;/div&gt;" style="shape=rhombus;perimeter=rhombusPerimeter;whiteSpace=wrap;html=1;align=center;fontFamily=Helvetica;fontSize=11;labelBackgroundColor=none;fillColor=#dae8fc;strokeColor=#6c8ebf;fontColor=#434D66;" vertex="1" parent="1">
          <mxGeometry x="535" y="1990" width="80" height="40" as="geometry" />
        </mxCell>
        <mxCell id="X7nKvmQEceXL8asA8oug-135" value="A" style="rounded=1;arcSize=50;whiteSpace=wrap;html=1;align=center;fillColor=#f5f5f5;strokeColor=#666666;fontColor=#434D66;fontStyle=1" vertex="1" parent="1">
          <mxGeometry x="495" y="2020" width="20" height="20" as="geometry" />
        </mxCell>
        <mxCell id="X7nKvmQEceXL8asA8oug-136" value="B" style="rounded=1;arcSize=50;whiteSpace=wrap;html=1;align=center;fillColor=#f5f5f5;strokeColor=#666666;fontColor=#434D66;fontStyle=1" vertex="1" parent="1">
          <mxGeometry x="495" y="1980" width="20" height="20" as="geometry" />
        </mxCell>
        <mxCell id="X7nKvmQEceXL8asA8oug-140" value="Ja" style="text;html=1;align=center;verticalAlign=middle;whiteSpace=wrap;rounded=0;fontFamily=Helvetica;fontSize=11;fontColor=#99CCFF;labelBackgroundColor=none;" vertex="1" parent="1">
          <mxGeometry x="556" y="2044" width="20" height="16" as="geometry" />
        </mxCell>
        <mxCell id="X7nKvmQEceXL8asA8oug-141" value="Nein" style="text;html=1;align=center;verticalAlign=middle;whiteSpace=wrap;rounded=0;fontFamily=Helvetica;fontSize=11;fontColor=#99CCFF;labelBackgroundColor=none;" vertex="1" parent="1">
          <mxGeometry x="548" y="1960" width="26" height="16" as="geometry" />
        </mxCell>
        <mxCell id="X7nKvmQEceXL8asA8oug-146" style="edgeStyle=orthogonalEdgeStyle;shape=connector;rounded=0;orthogonalLoop=1;jettySize=auto;html=1;exitX=0.5;exitY=0;exitDx=0;exitDy=0;entryX=0.5;entryY=1;entryDx=0;entryDy=0;strokeColor=#99CCFF;align=center;verticalAlign=middle;fontFamily=Helvetica;fontSize=11;fontColor=default;labelBackgroundColor=default;startArrow=none;startFill=0;endArrow=classic;endFill=1;" edge="1" parent="1" source="X7nKvmQEceXL8asA8oug-142" target="X7nKvmQEceXL8asA8oug-144">
          <mxGeometry relative="1" as="geometry" />
        </mxCell>
        <mxCell id="X7nKvmQEceXL8asA8oug-142" value="A" style="rounded=1;arcSize=50;whiteSpace=wrap;html=1;align=center;fillColor=#f5f5f5;strokeColor=#666666;fontColor=#434D66;fontStyle=1" vertex="1" parent="1">
          <mxGeometry x="565" y="1899" width="20" height="20" as="geometry" />
        </mxCell>
        <mxCell id="X7nKvmQEceXL8asA8oug-147" style="edgeStyle=orthogonalEdgeStyle;shape=connector;rounded=0;orthogonalLoop=1;jettySize=auto;html=1;exitX=0.5;exitY=0;exitDx=0;exitDy=0;entryX=0.5;entryY=1;entryDx=0;entryDy=0;strokeColor=#99CCFF;align=center;verticalAlign=middle;fontFamily=Helvetica;fontSize=11;fontColor=default;labelBackgroundColor=default;startArrow=none;startFill=0;endArrow=classic;endFill=1;" edge="1" parent="1" source="X7nKvmQEceXL8asA8oug-143" target="X7nKvmQEceXL8asA8oug-145">
          <mxGeometry relative="1" as="geometry" />
        </mxCell>
        <mxCell id="X7nKvmQEceXL8asA8oug-143" value="B" style="rounded=1;arcSize=50;whiteSpace=wrap;html=1;align=center;fillColor=#f5f5f5;strokeColor=#666666;fontColor=#434D66;fontStyle=1" vertex="1" parent="1">
          <mxGeometry x="665" y="1899" width="20" height="20" as="geometry" />
        </mxCell>
        <mxCell id="X7nKvmQEceXL8asA8oug-165" style="edgeStyle=orthogonalEdgeStyle;shape=connector;rounded=0;orthogonalLoop=1;jettySize=auto;html=1;exitX=0.5;exitY=0;exitDx=0;exitDy=0;entryX=0.5;entryY=1;entryDx=0;entryDy=0;strokeColor=#99CCFF;align=center;verticalAlign=middle;fontFamily=Helvetica;fontSize=11;fontColor=default;labelBackgroundColor=default;startArrow=none;startFill=0;endArrow=classic;endFill=1;" edge="1" parent="1" source="X7nKvmQEceXL8asA8oug-144" target="X7nKvmQEceXL8asA8oug-149">
          <mxGeometry relative="1" as="geometry" />
        </mxCell>
        <mxCell id="X7nKvmQEceXL8asA8oug-144" value="Player&lt;div&gt;Zug&lt;/div&gt;" style="rounded=1;arcSize=10;whiteSpace=wrap;html=1;align=center;fillColor=#f5f5f5;strokeColor=#666666;fontColor=#434D66;fontStyle=1" vertex="1" parent="1">
          <mxGeometry x="535" y="1839" width="80" height="40" as="geometry" />
        </mxCell>
        <mxCell id="X7nKvmQEceXL8asA8oug-166" style="edgeStyle=orthogonalEdgeStyle;shape=connector;rounded=0;orthogonalLoop=1;jettySize=auto;html=1;exitX=0.5;exitY=0;exitDx=0;exitDy=0;entryX=0.5;entryY=1;entryDx=0;entryDy=0;strokeColor=#99CCFF;align=center;verticalAlign=middle;fontFamily=Helvetica;fontSize=11;fontColor=default;labelBackgroundColor=default;startArrow=none;startFill=0;endArrow=classic;endFill=1;" edge="1" parent="1" source="X7nKvmQEceXL8asA8oug-145" target="X7nKvmQEceXL8asA8oug-148">
          <mxGeometry relative="1" as="geometry" />
        </mxCell>
        <mxCell id="X7nKvmQEceXL8asA8oug-145" value="Enemy&lt;div&gt;Zug&lt;/div&gt;" style="rounded=1;arcSize=10;whiteSpace=wrap;html=1;align=center;fillColor=#f5f5f5;strokeColor=#666666;fontColor=#434D66;fontStyle=1" vertex="1" parent="1">
          <mxGeometry x="636" y="1839" width="80" height="40" as="geometry" />
        </mxCell>
        <mxCell id="X7nKvmQEceXL8asA8oug-159" style="edgeStyle=orthogonalEdgeStyle;shape=connector;rounded=0;orthogonalLoop=1;jettySize=auto;html=1;exitX=1;exitY=0.5;exitDx=0;exitDy=0;entryX=1;entryY=0.5;entryDx=0;entryDy=0;strokeColor=#99CCFF;align=center;verticalAlign=middle;fontFamily=Helvetica;fontSize=11;fontColor=default;labelBackgroundColor=default;startArrow=none;startFill=0;endArrow=classic;endFill=1;" edge="1" parent="1" source="X7nKvmQEceXL8asA8oug-148" target="X7nKvmQEceXL8asA8oug-156">
          <mxGeometry relative="1" as="geometry" />
        </mxCell>
        <mxCell id="X7nKvmQEceXL8asA8oug-163" style="edgeStyle=orthogonalEdgeStyle;shape=connector;rounded=0;orthogonalLoop=1;jettySize=auto;html=1;exitX=0.5;exitY=0;exitDx=0;exitDy=0;entryX=1;entryY=0.5;entryDx=0;entryDy=0;strokeColor=#99CCFF;align=center;verticalAlign=middle;fontFamily=Helvetica;fontSize=11;fontColor=default;labelBackgroundColor=default;startArrow=none;startFill=0;endArrow=classic;endFill=1;" edge="1" parent="1" source="X7nKvmQEceXL8asA8oug-148" target="X7nKvmQEceXL8asA8oug-160">
          <mxGeometry relative="1" as="geometry" />
        </mxCell>
        <mxCell id="X7nKvmQEceXL8asA8oug-148" value="&lt;div style=&quot;line-height: 90%;&quot;&gt;&lt;span style=&quot;font-size: 10px; line-height: 90%;&quot;&gt;Player&lt;/span&gt;&lt;div&gt;&lt;span style=&quot;font-size: 10px; line-height: 90%;&quot;&gt;Erstschlag&lt;/span&gt;&lt;/div&gt;&lt;/div&gt;" style="shape=rhombus;perimeter=rhombusPerimeter;whiteSpace=wrap;html=1;align=center;fontFamily=Helvetica;fontSize=11;labelBackgroundColor=none;fillColor=#dae8fc;strokeColor=#6c8ebf;fontColor=#434D66;" vertex="1" parent="1">
          <mxGeometry x="636" y="1779" width="80" height="40" as="geometry" />
        </mxCell>
        <mxCell id="X7nKvmQEceXL8asA8oug-158" style="edgeStyle=orthogonalEdgeStyle;shape=connector;rounded=0;orthogonalLoop=1;jettySize=auto;html=1;exitX=0;exitY=0.5;exitDx=0;exitDy=0;entryX=0;entryY=0.5;entryDx=0;entryDy=0;strokeColor=#99CCFF;align=center;verticalAlign=middle;fontFamily=Helvetica;fontSize=11;fontColor=default;labelBackgroundColor=default;startArrow=none;startFill=0;endArrow=classic;endFill=1;" edge="1" parent="1" source="X7nKvmQEceXL8asA8oug-149" target="X7nKvmQEceXL8asA8oug-157">
          <mxGeometry relative="1" as="geometry" />
        </mxCell>
        <mxCell id="X7nKvmQEceXL8asA8oug-162" style="edgeStyle=orthogonalEdgeStyle;shape=connector;rounded=0;orthogonalLoop=1;jettySize=auto;html=1;exitX=0.5;exitY=0;exitDx=0;exitDy=0;entryX=0;entryY=0.5;entryDx=0;entryDy=0;strokeColor=#99CCFF;align=center;verticalAlign=middle;fontFamily=Helvetica;fontSize=11;fontColor=default;labelBackgroundColor=default;startArrow=none;startFill=0;endArrow=classic;endFill=1;" edge="1" parent="1" source="X7nKvmQEceXL8asA8oug-149" target="X7nKvmQEceXL8asA8oug-160">
          <mxGeometry relative="1" as="geometry" />
        </mxCell>
        <mxCell id="X7nKvmQEceXL8asA8oug-149" value="&lt;div style=&quot;line-height: 90%;&quot;&gt;&lt;span style=&quot;font-size: 10px; line-height: 90%;&quot;&gt;Player&lt;/span&gt;&lt;div&gt;&lt;span style=&quot;font-size: 10px; line-height: 90%;&quot;&gt;Erstschlag&lt;/span&gt;&lt;/div&gt;&lt;/div&gt;" style="shape=rhombus;perimeter=rhombusPerimeter;whiteSpace=wrap;html=1;align=center;fontFamily=Helvetica;fontSize=11;labelBackgroundColor=none;fillColor=#dae8fc;strokeColor=#6c8ebf;fontColor=#434D66;" vertex="1" parent="1">
          <mxGeometry x="535" y="1779" width="80" height="40" as="geometry" />
        </mxCell>
        <mxCell id="X7nKvmQEceXL8asA8oug-152" style="edgeStyle=orthogonalEdgeStyle;shape=connector;rounded=0;orthogonalLoop=1;jettySize=auto;html=1;exitX=0;exitY=0.5;exitDx=0;exitDy=0;entryX=0.5;entryY=0;entryDx=0;entryDy=0;strokeColor=#99CCFF;align=center;verticalAlign=middle;fontFamily=Helvetica;fontSize=11;fontColor=default;labelBackgroundColor=default;startArrow=none;startFill=0;endArrow=classic;endFill=1;" edge="1" parent="1" source="X7nKvmQEceXL8asA8oug-150" target="X7nKvmQEceXL8asA8oug-151">
          <mxGeometry relative="1" as="geometry" />
        </mxCell>
        <mxCell id="X7nKvmQEceXL8asA8oug-150" value="Erstelle&lt;div&gt;Log&lt;/div&gt;" style="rounded=1;arcSize=10;whiteSpace=wrap;html=1;align=center;fillColor=#f5f5f5;strokeColor=#666666;fontColor=#434D66;fontStyle=1" vertex="1" parent="1">
          <mxGeometry x="565" y="1669" width="120" height="40" as="geometry" />
        </mxCell>
        <mxCell id="X7nKvmQEceXL8asA8oug-153" style="edgeStyle=orthogonalEdgeStyle;shape=connector;rounded=0;orthogonalLoop=1;jettySize=auto;html=1;exitX=0.5;exitY=1;exitDx=0;exitDy=0;entryX=0.5;entryY=0;entryDx=0;entryDy=0;strokeColor=#99CCFF;align=center;verticalAlign=middle;fontFamily=Helvetica;fontSize=11;fontColor=default;labelBackgroundColor=default;startArrow=none;startFill=0;endArrow=classic;endFill=1;" edge="1" parent="1" source="X7nKvmQEceXL8asA8oug-151" target="X7nKvmQEceXL8asA8oug-130">
          <mxGeometry relative="1" as="geometry" />
        </mxCell>
        <mxCell id="X7nKvmQEceXL8asA8oug-155" style="edgeStyle=orthogonalEdgeStyle;shape=connector;rounded=0;orthogonalLoop=1;jettySize=auto;html=1;exitX=0;exitY=0.5;exitDx=0;exitDy=0;entryX=0.5;entryY=0;entryDx=0;entryDy=0;strokeColor=#99CCFF;align=center;verticalAlign=middle;fontFamily=Helvetica;fontSize=11;fontColor=default;labelBackgroundColor=default;startArrow=none;startFill=0;endArrow=classic;endFill=1;" edge="1" parent="1" source="X7nKvmQEceXL8asA8oug-151" target="X7nKvmQEceXL8asA8oug-154">
          <mxGeometry relative="1" as="geometry" />
        </mxCell>
        <mxCell id="X7nKvmQEceXL8asA8oug-151" value="&lt;div style=&quot;line-height: 90%;&quot;&gt;&lt;span style=&quot;font-size: 10px;&quot;&gt;life == 0&lt;/span&gt;&lt;/div&gt;&lt;div style=&quot;line-height: 90%;&quot;&gt;&lt;span style=&quot;font-size: 10px;&quot;&gt;round &amp;gt; 9&lt;/span&gt;&lt;/div&gt;" style="shape=rhombus;perimeter=rhombusPerimeter;whiteSpace=wrap;html=1;align=center;fontFamily=Helvetica;fontSize=11;labelBackgroundColor=none;fillColor=#dae8fc;strokeColor=#6c8ebf;fontColor=#434D66;" vertex="1" parent="1">
          <mxGeometry x="406" y="1900" width="80" height="40" as="geometry" />
        </mxCell>
        <mxCell id="X7nKvmQEceXL8asA8oug-154" value="Ende" style="rounded=1;arcSize=10;whiteSpace=wrap;html=1;align=center;fillColor=light-dark(#D5E8D4,#663300);strokeColor=light-dark(#D5E8D4,#402100);fontColor=#434D66;fontStyle=1" vertex="1" parent="1">
          <mxGeometry x="360" y="2000" width="40" height="40" as="geometry" />
        </mxCell>
        <mxCell id="X7nKvmQEceXL8asA8oug-156" value="A" style="rounded=1;arcSize=50;whiteSpace=wrap;html=1;align=center;fillColor=#f5f5f5;strokeColor=#666666;fontColor=#434D66;fontStyle=1" vertex="1" parent="1">
          <mxGeometry x="696" y="1739" width="20" height="20" as="geometry" />
        </mxCell>
        <mxCell id="X7nKvmQEceXL8asA8oug-157" value="B" style="rounded=1;arcSize=50;whiteSpace=wrap;html=1;align=center;fillColor=#f5f5f5;strokeColor=#666666;fontColor=#434D66;fontStyle=1" vertex="1" parent="1">
          <mxGeometry x="536" y="1739" width="20" height="20" as="geometry" />
        </mxCell>
        <mxCell id="X7nKvmQEceXL8asA8oug-164" style="edgeStyle=orthogonalEdgeStyle;shape=connector;rounded=0;orthogonalLoop=1;jettySize=auto;html=1;exitX=0.5;exitY=0;exitDx=0;exitDy=0;entryX=0.5;entryY=1;entryDx=0;entryDy=0;strokeColor=#99CCFF;align=center;verticalAlign=middle;fontFamily=Helvetica;fontSize=11;fontColor=default;labelBackgroundColor=default;startArrow=none;startFill=0;endArrow=classic;endFill=1;" edge="1" parent="1" source="X7nKvmQEceXL8asA8oug-160" target="X7nKvmQEceXL8asA8oug-150">
          <mxGeometry relative="1" as="geometry" />
        </mxCell>
        <mxCell id="X7nKvmQEceXL8asA8oug-160" value="" style="shape=rhombus;perimeter=rhombusPerimeter;whiteSpace=wrap;html=1;align=center;fontFamily=Helvetica;fontSize=11;labelBackgroundColor=none;fillColor=none;strokeColor=#99CCFF;fontColor=#333333;" vertex="1" parent="1">
          <mxGeometry x="605" y="1729" width="40" height="40" as="geometry" />
        </mxCell>
      </root>
    </mxGraphModel>
  </diagram>
</mxfile>
